<?xml version="1.0" standalone="no"?>
<!DOCTYPE svg PUBLIC "-//W3C//DTD SVG 20010904//EN"
 "http://www.w3.org/TR/2001/REC-SVG-20010904/DTD/svg10.dtd">
<svg version="1.0" xmlns="http://www.w3.org/2000/svg"
 width="1735.000000pt" height="1593.000000pt" viewBox="0 0 1735.000000 1593.000000"
 preserveAspectRatio="xMidYMid meet">

<g transform="translate(0.000000,1593.000000) scale(0.100000,-0.100000)"
fill="#000000" stroke="none">
<path d="M7877 13023 c1366 -2367 1731 -3001 1749 -3038 53 -110 1138 -1975
1145 -1968 18 19 1133 1959 1133 1973 1 8 -511 903 -1138 1988 l-1138 1972
-1143 0 -1143 0 535 -927z"/>
<path d="M5063 9983 c37 -72 1133 -1963 1137 -1963 3 0 39 60 81 133 42 72
185 321 319 552 134 231 277 479 318 550 41 72 151 263 245 425 93 162 172
298 174 303 2 4 -509 7 -1137 7 -628 0 -1139 -3 -1137 -7z"/>
<path d="M2460 5963 c-271 -731 -495 -1334 -498 -1340 -3 -10 32 -13 154 -13
l159 0 119 330 118 330 593 0 593 0 30 -82 c16 -46 69 -194 117 -330 l88 -248
175 0 c135 0 173 3 169 13 -2 6 -226 609 -498 1340 l-493 1327 -167 0 -166 0
-493 -1327z m689 842 c17 -61 127 -373 246 -694 118 -322 215 -588 215 -593 0
-4 -228 -8 -506 -8 -477 0 -506 1 -501 18 2 9 97 269 210 577 186 506 260 724
282 825 9 41 5 51 54 -125z"/>
<path d="M5276 6604 c-150 -36 -296 -160 -378 -319 -25 -49 -52 -109 -59 -133
-7 -23 -14 -41 -16 -39 -2 2 3 62 11 133 8 71 17 175 21 232 l7 102 -151 0
-151 0 0 -985 0 -985 149 0 149 0 5 518 c4 538 8 583 52 759 36 141 85 235
164 314 100 99 187 132 341 128 77 -2 85 0 87 17 1 10 4 76 5 147 l4 127 -91
-1 c-49 0 -116 -7 -149 -15z"/>
<path d="M6305 6609 c-290 -37 -528 -199 -640 -433 -51 -109 -68 -192 -67
-331 1 -238 72 -397 234 -526 l48 -37 -50 -32 c-59 -38 -92 -75 -128 -144 -22
-44 -26 -64 -27 -141 0 -79 3 -96 27 -140 28 -53 60 -87 120 -127 l37 -24 -64
-42 c-119 -79 -216 -210 -250 -337 -19 -73 -19 -223 -1 -291 34 -129 136 -254
261 -321 286 -152 801 -151 1132 2 175 81 319 211 387 349 90 183 81 412 -22
572 -49 75 -108 126 -197 170 -130 63 -154 66 -555 75 -370 7 -418 12 -491 50
-114 58 -99 206 27 276 33 18 46 20 84 13 88 -18 273 -23 377 -11 223 26 379
95 510 226 135 137 195 288 195 500 1 165 -45 295 -139 396 l-46 49 177 0 176
0 0 113 0 114 -332 6 c-190 4 -387 13 -458 22 -137 16 -219 17 -325 4z m295
-241 c78 -18 172 -69 221 -118 111 -111 160 -297 124 -471 -50 -250 -235 -383
-530 -382 -265 1 -431 106 -496 313 -86 277 43 554 297 640 116 39 267 46 384
18z m191 -1788 c151 -30 243 -101 278 -215 25 -80 26 -121 6 -200 -30 -116
-120 -213 -256 -273 -142 -65 -346 -93 -521 -74 -299 34 -469 171 -470 379 -1
133 69 256 197 348 l70 50 325 -3 c179 -1 346 -7 371 -12z"/>
<path d="M8382 6610 c-416 -59 -713 -363 -787 -809 -21 -127 -16 -433 10 -546
68 -302 208 -497 432 -601 231 -108 566 -110 797 -5 286 130 483 408 541 764
17 107 20 322 4 434 -34 254 -140 471 -287 588 -141 112 -315 171 -525 179
-67 3 -150 1 -185 -4z m301 -269 c94 -33 155 -71 213 -134 114 -123 172 -295
181 -537 7 -172 -6 -287 -47 -414 -68 -212 -214 -363 -395 -411 -75 -19 -221
-19 -304 0 -232 55 -386 256 -431 563 -18 122 -8 376 19 477 65 247 222 415
437 470 82 21 249 14 327 -14z"/>
<path d="M10556 6603 c-222 -47 -381 -171 -499 -387 l-38 -71 6 45 c7 61 24
295 25 348 l0 42 -150 0 -150 0 0 -985 0 -985 150 0 150 0 0 498 c0 528 6 620
47 762 41 145 96 244 188 336 118 120 219 164 376 164 124 0 180 -20 251 -90
47 -47 60 -68 78 -126 34 -112 39 -226 40 -901 l0 -643 145 0 146 0 -3 783
c-3 709 -5 787 -21 840 -61 205 -193 330 -392 372 -89 19 -259 18 -349 -2z"/>
<path d="M12648 6610 c-72 -13 -146 -39 -223 -78 -101 -52 -236 -189 -293
-299 -24 -46 -45 -83 -46 -83 -1 0 1 24 5 53 5 28 11 125 15 215 l7 162 -146
0 -147 0 0 -985 0 -985 149 0 150 0 3 568 4 567 27 99 c66 244 204 421 387
497 47 20 73 23 180 24 111 0 131 -3 177 -24 61 -27 117 -84 145 -147 45 -104
48 -154 48 -890 l0 -694 150 0 151 0 -4 773 c-3 849 -2 825 -67 961 -56 119
-158 206 -289 247 -74 24 -299 35 -383 19z"/>
<path d="M14487 6609 c-160 -22 -309 -94 -429 -207 -150 -142 -245 -338 -285
-585 -22 -140 -13 -464 15 -588 85 -361 282 -562 623 -636 123 -27 431 -24
590 5 119 22 304 76 314 92 3 4 0 63 -7 130 -10 102 -15 120 -28 116 -8 -3
-60 -21 -115 -41 -191 -69 -452 -94 -623 -59 -231 46 -380 194 -442 437 -22
87 -44 322 -34 362 l6 25 660 0 660 0 -5 168 c-3 127 -9 186 -26 247 -73 274
-244 448 -505 515 -94 24 -271 33 -369 19z m248 -234 c90 -23 160 -63 214
-120 81 -85 131 -209 131 -322 l0 -53 -499 0 -499 0 14 60 c65 278 256 447
509 449 39 1 98 -6 130 -14z"/>
<path d="M10673 3930 c-121 -61 -173 -156 -173 -314 0 -113 19 -180 68 -236
52 -61 102 -83 202 -88 106 -5 178 19 240 79 64 62 93 135 98 245 7 152 -37
253 -135 311 -41 24 -60 28 -143 31 -90 3 -98 2 -157 -28z m227 -110 c90 -64
103 -265 25 -359 -75 -88 -213 -72 -267 31 -33 65 -32 195 2 262 47 92 160
123 240 66z"/>
<path d="M8050 3625 l0 -325 60 0 60 0 0 228 0 227 43 -81 c23 -45 80 -147
127 -227 l85 -147 83 0 82 0 0 325 0 325 -60 0 -60 0 0 -222 -1 -223 -20 40
c-12 22 -68 122 -126 223 l-106 182 -83 0 -84 0 0 -325z"/>
<path d="M9005 3938 c-3 -7 -47 -134 -99 -283 -52 -148 -101 -289 -110 -313
l-15 -43 66 3 67 3 20 63 20 63 125 -3 125 -3 20 -62 20 -63 73 0 72 0 -38
108 c-21 59 -73 205 -116 325 l-78 217 -74 0 c-50 0 -75 -4 -78 -12z m120
-282 l43 -126 -90 0 c-68 0 -88 3 -85 13 3 6 22 64 44 128 21 64 39 115 41
114 2 -2 23 -60 47 -129z"/>
<path d="M9460 3900 l0 -50 85 0 85 0 0 -275 0 -275 65 0 65 0 0 275 0 275 85
0 85 0 0 50 0 50 -235 0 -235 0 0 -50z"/>
<path d="M10130 3625 l0 -325 65 0 65 0 0 325 0 325 -65 0 -65 0 0 -325z"/>
<path d="M11330 3625 l0 -325 60 0 60 0 0 228 0 227 58 -106 c31 -58 89 -161
127 -227 l70 -121 83 -1 82 0 0 325 0 325 -60 0 -61 0 3 -220 c2 -121 1 -220
-3 -220 -3 0 -15 21 -28 48 -12 26 -68 125 -123 220 l-100 172 -84 0 -84 0 0
-325z"/>
<path d="M12290 3947 c0 -2 -49 -145 -110 -317 -60 -172 -110 -317 -110 -322
0 -4 28 -8 63 -8 l63 0 20 63 20 62 125 3 125 3 20 -63 20 -63 72 -3 c40 -2
72 -1 72 1 0 2 -51 147 -114 323 l-114 319 -76 3 c-42 2 -76 1 -76 -1z m160
-414 c0 -2 -40 -3 -89 -3 l-89 0 44 128 c24 70 44 129 44 132 0 5 90 -252 90
-257z"/>
<path d="M12870 3625 l0 -325 170 0 170 0 0 55 0 55 -110 0 -110 0 0 270 0
270 -60 0 -60 0 0 -325z"/>
<path d="M9353 2643 l-23 -4 0 -325 0 -325 148 3 c131 3 152 6 195 27 30 14
58 38 74 62 31 47 41 125 23 169 -12 30 -56 74 -82 82 -8 3 -1 15 21 33 61 52
75 118 42 191 -14 32 -30 47 -67 65 -43 20 -65 24 -179 25 -71 1 -140 0 -152
-3z m212 -103 c47 -11 65 -32 65 -77 0 -46 -35 -80 -93 -88 -80 -12 -82 -10
-85 82 -2 71 -1 82 15 86 30 8 56 7 98 -3z m43 -287 c48 -36 47 -101 -1 -137
-22 -16 -43 -21 -90 -21 l-62 0 -3 79 c-2 44 0 86 3 94 8 21 119 10 153 -15z"/>
<path d="M10177 2636 c-147 -55 -230 -227 -198 -412 14 -79 31 -116 75 -162
58 -62 99 -77 211 -77 89 0 105 3 151 27 142 75 206 250 159 433 -20 77 -58
132 -119 169 -44 27 -58 31 -145 33 -64 2 -108 -1 -134 -11z m180 -113 c86
-40 123 -199 75 -324 -16 -40 -69 -87 -112 -99 -52 -14 -120 3 -154 39 -51 53
-73 188 -45 272 37 109 140 158 236 112z"/>
<path d="M10823 2644 c-10 -4 -13 -80 -13 -330 l0 -324 65 0 64 0 3 131 3 131
89 -131 89 -131 79 0 79 0 -22 33 c-13 17 -58 81 -101 140 -43 59 -78 109 -78
111 0 2 25 16 54 30 73 36 101 80 101 161 0 80 -25 122 -90 155 -44 22 -65 25
-180 27 -71 1 -136 0 -142 -3z m252 -129 c27 -26 34 -80 14 -117 -13 -25 -68
-48 -114 -48 l-35 0 0 95 0 95 55 0 c46 0 60 -4 80 -25z"/>
<path d="M12970 2641 c-82 -25 -167 -109 -197 -194 -24 -70 -24 -235 1 -292
29 -69 65 -111 119 -141 48 -27 60 -29 152 -29 89 0 105 3 150 27 66 35 108
80 142 153 25 54 28 71 28 165 0 99 -2 110 -33 172 -52 107 -126 149 -261 147
-42 0 -87 -4 -101 -8z m174 -124 c56 -31 80 -84 85 -180 5 -125 -40 -208 -132
-237 -80 -25 -172 29 -196 117 -16 56 -13 168 4 211 43 101 149 141 239 89z"/>
<path d="M13593 2644 c-10 -4 -13 -80 -13 -330 l0 -324 65 0 64 0 3 131 3 132
88 -132 87 -131 81 0 c64 0 79 3 72 13 -28 35 -193 268 -193 272 0 3 18 12 40
21 143 58 157 260 22 325 -40 20 -65 24 -177 26 -71 1 -136 0 -142 -3z m252
-129 c18 -17 25 -35 25 -63 0 -61 -50 -102 -126 -102 l-34 0 0 95 0 95 55 0
c46 0 60 -4 80 -25z"/>
<path d="M8050 2315 l0 -325 170 0 170 0 0 55 0 55 -105 0 -105 0 0 270 0 270
-65 0 -65 0 0 -325z"/>
<path d="M8749 2613 c-6 -16 -26 -71 -44 -123 -18 -52 -65 -186 -104 -298
l-71 -203 67 3 67 3 20 63 20 63 125 -3 125 -3 20 -62 20 -63 73 0 73 0 -19
48 c-10 26 -62 172 -117 325 l-98 277 -73 0 c-71 0 -74 -1 -84 -27z m121 -256
c22 -64 40 -121 40 -127 0 -6 -35 -10 -86 -10 -65 0 -85 3 -81 13 2 6 22 65
43 129 21 64 40 116 41 114 1 -1 21 -55 43 -119z"/>
<path d="M11556 2328 c-60 -172 -111 -319 -114 -325 -3 -10 13 -13 61 -13 l65
0 22 65 22 65 123 0 123 0 22 -65 22 -65 69 0 c38 0 69 3 69 8 0 4 -51 149
-113 322 l-112 315 -75 3 -75 3 -109 -313z m264 -100 c0 -5 -38 -8 -85 -8 -47
0 -85 3 -85 7 0 4 19 63 42 130 l42 123 43 -122 c23 -68 43 -126 43 -130z"/>
<path d="M12150 2590 l0 -49 83 -3 82 -3 3 -272 2 -273 65 0 65 0 0 275 0 275
80 0 80 0 0 50 0 50 -230 0 -230 0 0 -50z"/>
<path d="M14140 2637 c0 -2 45 -97 100 -211 l100 -206 0 -115 0 -115 65 0 65
0 0 118 0 119 100 202 c55 111 100 205 100 207 0 3 -30 4 -67 2 l-67 -3 -62
-133 c-34 -73 -64 -135 -66 -137 -2 -2 -32 59 -67 135 l-63 140 -69 0 c-38 0
-69 -2 -69 -3z"/>
</g>
</svg>
